<?xml version="1.0" encoding="UTF-8"?>
<svg id="Layer_2" xmlns="http://www.w3.org/2000/svg" viewBox="0 0 627.91 138.55">
    <defs>
        <style>
            .cls-1 {
                fill: #fff;
            }
        </style>
    </defs>
    <g id="Layer_1-2">
        <g>
            <g>
                <g>
                    <path class="cls-1"
                        d="M249.2,40.39h29v7.53h.32c5.77-6.57,14.9-9.93,25.63-9.93s20.67,4,27.07,11.21h.32c7.21-7.05,17.62-11.21,29.48-11.21,22.43,0,40.21,14.9,40.21,35.88v48.19h-29.96v-43.71c0-8.97-6.25-14.74-15.86-14.74s-16.02,5.93-16.02,14.74v43.71h-28.35v-43.71c0-8.97-6.09-14.74-15.7-14.74s-16.18,5.93-16.18,14.74v43.71h-29.96V40.39Z" />
                    <path class="cls-1"
                        d="M411.96,84.42V40.39h30.76v36.34c0,12.66,4.97,17.94,16.98,17.94,11.05,0,18.26-6.89,18.26-17.94V40.39h30.76V122.07h-29.64v-10.57h-.32c-6.89,7.53-15.54,10.57-27.39,10.57-23.87,0-39.41-15.06-39.41-37.65Z" />
                    <path class="cls-1"
                        d="M627.91,122.07h-29.96v-57.97h-33.48v57.97h-30.76v-57.97h-15.77v-23.71h15.77v-7.69c0-16.98,10.57-32.71,30.6-32.71h22.27V23.55h-15.86c-7.76,0-6.25,7.87-6.25,11.72v5.13h63.44V122.07Z" />
                </g>
                <circle class="cls-1" cx="612.93" cy="14.98" r="14.98" />
            </g>
            <g>
                <path class="cls-1"
                    d="M66.58,81.25v33.73c0,10.62,12.48,16.32,20.51,9.37l52.02-45.05c2.72-2.35,4.28-5.77,4.28-9.37V36.2c0-10.62-12.48-16.32-20.51-9.37l-52.02,45.05c-2.72,2.35-4.28,5.77-4.28,9.37Z" />
                <path class="cls-1"
                    d="M133.17,87.08h0c0,21.54,25.32,33.11,41.6,19l26.53-22.97c5.51-4.78,8.68-11.71,8.68-19h0c0-21.54-25.32-33.11-41.6-19l-26.53,22.97c-5.51,4.78-8.68,11.71-8.68,19Z" />
                <path class="cls-1"
                    d="M0,76.96v58.58c0,2.57,3.02,3.95,4.96,2.27l70.81-61.32c.66-.57,1.04-1.4,1.04-2.27V15.64c0-2.57-3.02-3.95-4.96-2.27L1.04,74.69c-.66,.57-1.04,1.4-1.04,2.27Z" />
            </g>
        </g>
    </g>
</svg>